<?xml version="1.0" encoding="utf-8" standalone="no"?>
<!DOCTYPE svg PUBLIC "-//W3C//DTD SVG 1.1//EN"
  "http://www.w3.org/Graphics/SVG/1.1/DTD/svg11.dtd">
<!-- Created with matplotlib (https://matplotlib.org/) -->
<svg height="345.6pt" version="1.1" viewBox="0 0 460.8 345.6" width="460.8pt" xmlns="http://www.w3.org/2000/svg" xmlns:xlink="http://www.w3.org/1999/xlink">
 <metadata>
  <rdf:RDF xmlns:cc="http://creativecommons.org/ns#" xmlns:dc="http://purl.org/dc/elements/1.1/" xmlns:rdf="http://www.w3.org/1999/02/22-rdf-syntax-ns#">
   <cc:Work>
    <dc:type rdf:resource="http://purl.org/dc/dcmitype/StillImage"/>
    <dc:date>2022-07-25T21:34:04.746907</dc:date>
    <dc:format>image/svg+xml</dc:format>
    <dc:creator>
     <cc:Agent>
      <dc:title>Matplotlib v3.3.3, https://matplotlib.org/</dc:title>
     </cc:Agent>
    </dc:creator>
   </cc:Work>
  </rdf:RDF>
 </metadata>
 <defs>
  <style type="text/css">*{stroke-linecap:butt;stroke-linejoin:round;}</style>
 </defs>
 <g id="figure_1">
  <g id="patch_1">
   <path d="M 0 345.6 
L 460.8 345.6 
L 460.8 0 
L 0 0 
z
" style="fill:#ffffff;"/>
  </g>
  <g id="axes_1">
   <g id="patch_2">
    <path d="M 57.6 307.584 
L 414.72 307.584 
L 414.72 41.472 
L 57.6 41.472 
z
" style="fill:#ffffff;"/>
   </g>
   <g id="matplotlib.axis_1">
    <g id="xtick_1">
     <g id="line2d_1">
      <path clip-path="url(#p11164552c2)" d="M 236.16 307.584 
L 236.16 41.472 
" style="fill:none;stroke:#b0b0b0;stroke-linecap:square;stroke-width:0.8;"/>
     </g>
     <g id="line2d_2">
      <defs>
       <path d="M 0 0 
L 0 3.5 
" id="m65b2678d65" style="stroke:#000000;stroke-width:0.8;"/>
      </defs>
      <g>
       <use style="stroke:#000000;stroke-width:0.8;" x="236.16" xlink:href="#m65b2678d65" y="307.584"/>
      </g>
     </g>
     <g id="text_1">
      <!-- price -->
      <g transform="translate(223.715469 322.182437)scale(0.1 -0.1)">
       <defs>
        <path d="M 18.109375 8.203125 
L 18.109375 -20.796875 
L 9.078125 -20.796875 
L 9.078125 54.6875 
L 18.109375 54.6875 
L 18.109375 46.390625 
Q 20.953125 51.265625 25.265625 53.625 
Q 29.59375 56 35.59375 56 
Q 45.5625 56 51.78125 48.09375 
Q 58.015625 40.1875 58.015625 27.296875 
Q 58.015625 14.40625 51.78125 6.484375 
Q 45.5625 -1.421875 35.59375 -1.421875 
Q 29.59375 -1.421875 25.265625 0.953125 
Q 20.953125 3.328125 18.109375 8.203125 
z
M 48.6875 27.296875 
Q 48.6875 37.203125 44.609375 42.84375 
Q 40.53125 48.484375 33.40625 48.484375 
Q 26.265625 48.484375 22.1875 42.84375 
Q 18.109375 37.203125 18.109375 27.296875 
Q 18.109375 17.390625 22.1875 11.75 
Q 26.265625 6.109375 33.40625 6.109375 
Q 40.53125 6.109375 44.609375 11.75 
Q 48.6875 17.390625 48.6875 27.296875 
z
" id="DejaVuSans-112"/>
        <path d="M 41.109375 46.296875 
Q 39.59375 47.171875 37.8125 47.578125 
Q 36.03125 48 33.890625 48 
Q 26.265625 48 22.1875 43.046875 
Q 18.109375 38.09375 18.109375 28.8125 
L 18.109375 0 
L 9.078125 0 
L 9.078125 54.6875 
L 18.109375 54.6875 
L 18.109375 46.1875 
Q 20.953125 51.171875 25.484375 53.578125 
Q 30.03125 56 36.53125 56 
Q 37.453125 56 38.578125 55.875 
Q 39.703125 55.765625 41.0625 55.515625 
z
" id="DejaVuSans-114"/>
        <path d="M 9.421875 54.6875 
L 18.40625 54.6875 
L 18.40625 0 
L 9.421875 0 
z
M 9.421875 75.984375 
L 18.40625 75.984375 
L 18.40625 64.59375 
L 9.421875 64.59375 
z
" id="DejaVuSans-105"/>
        <path d="M 48.78125 52.59375 
L 48.78125 44.1875 
Q 44.96875 46.296875 41.140625 47.34375 
Q 37.3125 48.390625 33.40625 48.390625 
Q 24.65625 48.390625 19.8125 42.84375 
Q 14.984375 37.3125 14.984375 27.296875 
Q 14.984375 17.28125 19.8125 11.734375 
Q 24.65625 6.203125 33.40625 6.203125 
Q 37.3125 6.203125 41.140625 7.25 
Q 44.96875 8.296875 48.78125 10.40625 
L 48.78125 2.09375 
Q 45.015625 0.34375 40.984375 -0.53125 
Q 36.96875 -1.421875 32.421875 -1.421875 
Q 20.0625 -1.421875 12.78125 6.34375 
Q 5.515625 14.109375 5.515625 27.296875 
Q 5.515625 40.671875 12.859375 48.328125 
Q 20.21875 56 33.015625 56 
Q 37.15625 56 41.109375 55.140625 
Q 45.0625 54.296875 48.78125 52.59375 
z
" id="DejaVuSans-99"/>
        <path d="M 56.203125 29.59375 
L 56.203125 25.203125 
L 14.890625 25.203125 
Q 15.484375 15.921875 20.484375 11.0625 
Q 25.484375 6.203125 34.421875 6.203125 
Q 39.59375 6.203125 44.453125 7.46875 
Q 49.3125 8.734375 54.109375 11.28125 
L 54.109375 2.78125 
Q 49.265625 0.734375 44.1875 -0.34375 
Q 39.109375 -1.421875 33.890625 -1.421875 
Q 20.796875 -1.421875 13.15625 6.1875 
Q 5.515625 13.8125 5.515625 26.8125 
Q 5.515625 40.234375 12.765625 48.109375 
Q 20.015625 56 32.328125 56 
Q 43.359375 56 49.78125 48.890625 
Q 56.203125 41.796875 56.203125 29.59375 
z
M 47.21875 32.234375 
Q 47.125 39.59375 43.09375 43.984375 
Q 39.0625 48.390625 32.421875 48.390625 
Q 24.90625 48.390625 20.390625 44.140625 
Q 15.875 39.890625 15.1875 32.171875 
z
" id="DejaVuSans-101"/>
       </defs>
       <use xlink:href="#DejaVuSans-112"/>
       <use x="63.476562" xlink:href="#DejaVuSans-114"/>
       <use x="104.589844" xlink:href="#DejaVuSans-105"/>
       <use x="132.373047" xlink:href="#DejaVuSans-99"/>
       <use x="187.353516" xlink:href="#DejaVuSans-101"/>
      </g>
     </g>
    </g>
   </g>
   <g id="matplotlib.axis_2">
    <g id="ytick_1">
     <g id="line2d_3">
      <path clip-path="url(#p11164552c2)" d="M 57.6 283.863668 
L 414.72 283.863668 
" style="fill:none;stroke:#b0b0b0;stroke-linecap:square;stroke-width:0.8;"/>
     </g>
     <g id="line2d_4">
      <defs>
       <path d="M 0 0 
L -3.5 0 
" id="mdacd43fdd3" style="stroke:#000000;stroke-width:0.8;"/>
      </defs>
      <g>
       <use style="stroke:#000000;stroke-width:0.8;" x="57.6" xlink:href="#mdacd43fdd3" y="283.863668"/>
      </g>
     </g>
     <g id="text_2">
      <!-- 25 -->
      <g transform="translate(37.875 287.662886)scale(0.1 -0.1)">
       <defs>
        <path d="M 19.1875 8.296875 
L 53.609375 8.296875 
L 53.609375 0 
L 7.328125 0 
L 7.328125 8.296875 
Q 12.9375 14.109375 22.625 23.890625 
Q 32.328125 33.6875 34.8125 36.53125 
Q 39.546875 41.84375 41.421875 45.53125 
Q 43.3125 49.21875 43.3125 52.78125 
Q 43.3125 58.59375 39.234375 62.25 
Q 35.15625 65.921875 28.609375 65.921875 
Q 23.96875 65.921875 18.8125 64.3125 
Q 13.671875 62.703125 7.8125 59.421875 
L 7.8125 69.390625 
Q 13.765625 71.78125 18.9375 73 
Q 24.125 74.21875 28.421875 74.21875 
Q 39.75 74.21875 46.484375 68.546875 
Q 53.21875 62.890625 53.21875 53.421875 
Q 53.21875 48.921875 51.53125 44.890625 
Q 49.859375 40.875 45.40625 35.40625 
Q 44.1875 33.984375 37.640625 27.21875 
Q 31.109375 20.453125 19.1875 8.296875 
z
" id="DejaVuSans-50"/>
        <path d="M 10.796875 72.90625 
L 49.515625 72.90625 
L 49.515625 64.59375 
L 19.828125 64.59375 
L 19.828125 46.734375 
Q 21.96875 47.46875 24.109375 47.828125 
Q 26.265625 48.1875 28.421875 48.1875 
Q 40.625 48.1875 47.75 41.5 
Q 54.890625 34.8125 54.890625 23.390625 
Q 54.890625 11.625 47.5625 5.09375 
Q 40.234375 -1.421875 26.90625 -1.421875 
Q 22.3125 -1.421875 17.546875 -0.640625 
Q 12.796875 0.140625 7.71875 1.703125 
L 7.71875 11.625 
Q 12.109375 9.234375 16.796875 8.0625 
Q 21.484375 6.890625 26.703125 6.890625 
Q 35.15625 6.890625 40.078125 11.328125 
Q 45.015625 15.765625 45.015625 23.390625 
Q 45.015625 31 40.078125 35.4375 
Q 35.15625 39.890625 26.703125 39.890625 
Q 22.75 39.890625 18.8125 39.015625 
Q 14.890625 38.140625 10.796875 36.28125 
z
" id="DejaVuSans-53"/>
       </defs>
       <use xlink:href="#DejaVuSans-50"/>
       <use x="63.623047" xlink:href="#DejaVuSans-53"/>
      </g>
     </g>
    </g>
    <g id="ytick_2">
     <g id="line2d_5">
      <path clip-path="url(#p11164552c2)" d="M 57.6 253.433478 
L 414.72 253.433478 
" style="fill:none;stroke:#b0b0b0;stroke-linecap:square;stroke-width:0.8;"/>
     </g>
     <g id="line2d_6">
      <g>
       <use style="stroke:#000000;stroke-width:0.8;" x="57.6" xlink:href="#mdacd43fdd3" y="253.433478"/>
      </g>
     </g>
     <g id="text_3">
      <!-- 50 -->
      <g transform="translate(37.875 257.232697)scale(0.1 -0.1)">
       <defs>
        <path d="M 31.78125 66.40625 
Q 24.171875 66.40625 20.328125 58.90625 
Q 16.5 51.421875 16.5 36.375 
Q 16.5 21.390625 20.328125 13.890625 
Q 24.171875 6.390625 31.78125 6.390625 
Q 39.453125 6.390625 43.28125 13.890625 
Q 47.125 21.390625 47.125 36.375 
Q 47.125 51.421875 43.28125 58.90625 
Q 39.453125 66.40625 31.78125 66.40625 
z
M 31.78125 74.21875 
Q 44.046875 74.21875 50.515625 64.515625 
Q 56.984375 54.828125 56.984375 36.375 
Q 56.984375 17.96875 50.515625 8.265625 
Q 44.046875 -1.421875 31.78125 -1.421875 
Q 19.53125 -1.421875 13.0625 8.265625 
Q 6.59375 17.96875 6.59375 36.375 
Q 6.59375 54.828125 13.0625 64.515625 
Q 19.53125 74.21875 31.78125 74.21875 
z
" id="DejaVuSans-48"/>
       </defs>
       <use xlink:href="#DejaVuSans-53"/>
       <use x="63.623047" xlink:href="#DejaVuSans-48"/>
      </g>
     </g>
    </g>
    <g id="ytick_3">
     <g id="line2d_7">
      <path clip-path="url(#p11164552c2)" d="M 57.6 223.003289 
L 414.72 223.003289 
" style="fill:none;stroke:#b0b0b0;stroke-linecap:square;stroke-width:0.8;"/>
     </g>
     <g id="line2d_8">
      <g>
       <use style="stroke:#000000;stroke-width:0.8;" x="57.6" xlink:href="#mdacd43fdd3" y="223.003289"/>
      </g>
     </g>
     <g id="text_4">
      <!-- 75 -->
      <g transform="translate(37.875 226.802508)scale(0.1 -0.1)">
       <defs>
        <path d="M 8.203125 72.90625 
L 55.078125 72.90625 
L 55.078125 68.703125 
L 28.609375 0 
L 18.3125 0 
L 43.21875 64.59375 
L 8.203125 64.59375 
z
" id="DejaVuSans-55"/>
       </defs>
       <use xlink:href="#DejaVuSans-55"/>
       <use x="63.623047" xlink:href="#DejaVuSans-53"/>
      </g>
     </g>
    </g>
    <g id="ytick_4">
     <g id="line2d_9">
      <path clip-path="url(#p11164552c2)" d="M 57.6 192.5731 
L 414.72 192.5731 
" style="fill:none;stroke:#b0b0b0;stroke-linecap:square;stroke-width:0.8;"/>
     </g>
     <g id="line2d_10">
      <g>
       <use style="stroke:#000000;stroke-width:0.8;" x="57.6" xlink:href="#mdacd43fdd3" y="192.5731"/>
      </g>
     </g>
     <g id="text_5">
      <!-- 100 -->
      <g transform="translate(31.5125 196.372319)scale(0.1 -0.1)">
       <defs>
        <path d="M 12.40625 8.296875 
L 28.515625 8.296875 
L 28.515625 63.921875 
L 10.984375 60.40625 
L 10.984375 69.390625 
L 28.421875 72.90625 
L 38.28125 72.90625 
L 38.28125 8.296875 
L 54.390625 8.296875 
L 54.390625 0 
L 12.40625 0 
z
" id="DejaVuSans-49"/>
       </defs>
       <use xlink:href="#DejaVuSans-49"/>
       <use x="63.623047" xlink:href="#DejaVuSans-48"/>
       <use x="127.246094" xlink:href="#DejaVuSans-48"/>
      </g>
     </g>
    </g>
    <g id="ytick_5">
     <g id="line2d_11">
      <path clip-path="url(#p11164552c2)" d="M 57.6 162.142911 
L 414.72 162.142911 
" style="fill:none;stroke:#b0b0b0;stroke-linecap:square;stroke-width:0.8;"/>
     </g>
     <g id="line2d_12">
      <g>
       <use style="stroke:#000000;stroke-width:0.8;" x="57.6" xlink:href="#mdacd43fdd3" y="162.142911"/>
      </g>
     </g>
     <g id="text_6">
      <!-- 125 -->
      <g transform="translate(31.5125 165.94213)scale(0.1 -0.1)">
       <use xlink:href="#DejaVuSans-49"/>
       <use x="63.623047" xlink:href="#DejaVuSans-50"/>
       <use x="127.246094" xlink:href="#DejaVuSans-53"/>
      </g>
     </g>
    </g>
    <g id="ytick_6">
     <g id="line2d_13">
      <path clip-path="url(#p11164552c2)" d="M 57.6 131.712722 
L 414.72 131.712722 
" style="fill:none;stroke:#b0b0b0;stroke-linecap:square;stroke-width:0.8;"/>
     </g>
     <g id="line2d_14">
      <g>
       <use style="stroke:#000000;stroke-width:0.8;" x="57.6" xlink:href="#mdacd43fdd3" y="131.712722"/>
      </g>
     </g>
     <g id="text_7">
      <!-- 150 -->
      <g transform="translate(31.5125 135.511941)scale(0.1 -0.1)">
       <use xlink:href="#DejaVuSans-49"/>
       <use x="63.623047" xlink:href="#DejaVuSans-53"/>
       <use x="127.246094" xlink:href="#DejaVuSans-48"/>
      </g>
     </g>
    </g>
    <g id="ytick_7">
     <g id="line2d_15">
      <path clip-path="url(#p11164552c2)" d="M 57.6 101.282533 
L 414.72 101.282533 
" style="fill:none;stroke:#b0b0b0;stroke-linecap:square;stroke-width:0.8;"/>
     </g>
     <g id="line2d_16">
      <g>
       <use style="stroke:#000000;stroke-width:0.8;" x="57.6" xlink:href="#mdacd43fdd3" y="101.282533"/>
      </g>
     </g>
     <g id="text_8">
      <!-- 175 -->
      <g transform="translate(31.5125 105.081752)scale(0.1 -0.1)">
       <use xlink:href="#DejaVuSans-49"/>
       <use x="63.623047" xlink:href="#DejaVuSans-55"/>
       <use x="127.246094" xlink:href="#DejaVuSans-53"/>
      </g>
     </g>
    </g>
    <g id="ytick_8">
     <g id="line2d_17">
      <path clip-path="url(#p11164552c2)" d="M 57.6 70.852344 
L 414.72 70.852344 
" style="fill:none;stroke:#b0b0b0;stroke-linecap:square;stroke-width:0.8;"/>
     </g>
     <g id="line2d_18">
      <g>
       <use style="stroke:#000000;stroke-width:0.8;" x="57.6" xlink:href="#mdacd43fdd3" y="70.852344"/>
      </g>
     </g>
     <g id="text_9">
      <!-- 200 -->
      <g transform="translate(31.5125 74.651562)scale(0.1 -0.1)">
       <use xlink:href="#DejaVuSans-50"/>
       <use x="63.623047" xlink:href="#DejaVuSans-48"/>
       <use x="127.246094" xlink:href="#DejaVuSans-48"/>
      </g>
     </g>
    </g>
   </g>
   <g id="line2d_19">
    <path clip-path="url(#p11164552c2)" d="M 209.376 259.154355 
L 262.944 259.154355 
L 262.944 218.377897 
L 209.376 218.377897 
L 209.376 259.154355 
" style="fill:none;stroke:#1f77b4;stroke-linecap:square;"/>
   </g>
   <g id="line2d_20">
    <path clip-path="url(#p11164552c2)" d="M 236.16 259.154355 
L 236.16 295.488 
" style="fill:none;stroke:#1f77b4;stroke-linecap:square;"/>
   </g>
   <g id="line2d_21">
    <path clip-path="url(#p11164552c2)" d="M 236.16 218.377897 
L 236.16 157.882685 
" style="fill:none;stroke:#1f77b4;stroke-linecap:square;"/>
   </g>
   <g id="line2d_22">
    <path clip-path="url(#p11164552c2)" d="M 222.768 295.488 
L 249.552 295.488 
" style="fill:none;stroke:#000000;stroke-linecap:square;"/>
   </g>
   <g id="line2d_23">
    <path clip-path="url(#p11164552c2)" d="M 222.768 157.882685 
L 249.552 157.882685 
" style="fill:none;stroke:#000000;stroke-linecap:square;"/>
   </g>
   <g id="line2d_24">
    <defs>
     <path d="M 0 3 
C 0.795609 3 1.55874 2.683901 2.12132 2.12132 
C 2.683901 1.55874 3 0.795609 3 0 
C 3 -0.795609 2.683901 -1.55874 2.12132 -2.12132 
C 1.55874 -2.683901 0.795609 -3 0 -3 
C -0.795609 -3 -1.55874 -2.683901 -2.12132 -2.12132 
C -2.683901 -1.55874 -3 -0.795609 -3 0 
C -3 0.795609 -2.683901 1.55874 -2.12132 2.12132 
C -1.55874 2.683901 -0.795609 3 0 3 
z
" id="ma0ba274309" style="stroke:#000000;"/>
    </defs>
    <g clip-path="url(#p11164552c2)">
     <use style="fill-opacity:0;stroke:#000000;" x="236.16" xlink:href="#ma0ba274309" y="93.370684"/>
     <use style="fill-opacity:0;stroke:#000000;" x="236.16" xlink:href="#ma0ba274309" y="93.370684"/>
     <use style="fill-opacity:0;stroke:#000000;" x="236.16" xlink:href="#ma0ba274309" y="93.370684"/>
     <use style="fill-opacity:0;stroke:#000000;" x="236.16" xlink:href="#ma0ba274309" y="152.648688"/>
     <use style="fill-opacity:0;stroke:#000000;" x="236.16" xlink:href="#ma0ba274309" y="93.370684"/>
     <use style="fill-opacity:0;stroke:#000000;" x="236.16" xlink:href="#ma0ba274309" y="53.568"/>
     <use style="fill-opacity:0;stroke:#000000;" x="236.16" xlink:href="#ma0ba274309" y="93.370684"/>
     <use style="fill-opacity:0;stroke:#000000;" x="236.16" xlink:href="#ma0ba274309" y="93.370684"/>
     <use style="fill-opacity:0;stroke:#000000;" x="236.16" xlink:href="#ma0ba274309" y="156.908915"/>
     <use style="fill-opacity:0;stroke:#000000;" x="236.16" xlink:href="#ma0ba274309" y="120.027522"/>
     <use style="fill-opacity:0;stroke:#000000;" x="236.16" xlink:href="#ma0ba274309" y="156.908915"/>
     <use style="fill-opacity:0;stroke:#000000;" x="236.16" xlink:href="#ma0ba274309" y="93.370684"/>
     <use style="fill-opacity:0;stroke:#000000;" x="236.16" xlink:href="#ma0ba274309" y="152.648688"/>
     <use style="fill-opacity:0;stroke:#000000;" x="236.16" xlink:href="#ma0ba274309" y="108.34234"/>
     <use style="fill-opacity:0;stroke:#000000;" x="236.16" xlink:href="#ma0ba274309" y="53.568"/>
     <use style="fill-opacity:0;stroke:#000000;" x="236.16" xlink:href="#ma0ba274309" y="152.648688"/>
     <use style="fill-opacity:0;stroke:#000000;" x="236.16" xlink:href="#ma0ba274309" y="108.34234"/>
     <use style="fill-opacity:0;stroke:#000000;" x="236.16" xlink:href="#ma0ba274309" y="128.669703"/>
     <use style="fill-opacity:0;stroke:#000000;" x="236.16" xlink:href="#ma0ba274309" y="93.370684"/>
     <use style="fill-opacity:0;stroke:#000000;" x="236.16" xlink:href="#ma0ba274309" y="53.568"/>
     <use style="fill-opacity:0;stroke:#000000;" x="236.16" xlink:href="#ma0ba274309" y="139.746299"/>
     <use style="fill-opacity:0;stroke:#000000;" x="236.16" xlink:href="#ma0ba274309" y="93.370684"/>
     <use style="fill-opacity:0;stroke:#000000;" x="236.16" xlink:href="#ma0ba274309" y="131.773586"/>
     <use style="fill-opacity:0;stroke:#000000;" x="236.16" xlink:href="#ma0ba274309" y="156.908915"/>
     <use style="fill-opacity:0;stroke:#000000;" x="236.16" xlink:href="#ma0ba274309" y="120.027522"/>
     <use style="fill-opacity:0;stroke:#000000;" x="236.16" xlink:href="#ma0ba274309" y="152.648688"/>
     <use style="fill-opacity:0;stroke:#000000;" x="236.16" xlink:href="#ma0ba274309" y="108.34234"/>
     <use style="fill-opacity:0;stroke:#000000;" x="236.16" xlink:href="#ma0ba274309" y="53.568"/>
     <use style="fill-opacity:0;stroke:#000000;" x="236.16" xlink:href="#ma0ba274309" y="152.648688"/>
     <use style="fill-opacity:0;stroke:#000000;" x="236.16" xlink:href="#ma0ba274309" y="108.34234"/>
     <use style="fill-opacity:0;stroke:#000000;" x="236.16" xlink:href="#ma0ba274309" y="128.669703"/>
     <use style="fill-opacity:0;stroke:#000000;" x="236.16" xlink:href="#ma0ba274309" y="93.370684"/>
     <use style="fill-opacity:0;stroke:#000000;" x="236.16" xlink:href="#ma0ba274309" y="156.908915"/>
     <use style="fill-opacity:0;stroke:#000000;" x="236.16" xlink:href="#ma0ba274309" y="53.568"/>
     <use style="fill-opacity:0;stroke:#000000;" x="236.16" xlink:href="#ma0ba274309" y="139.746299"/>
     <use style="fill-opacity:0;stroke:#000000;" x="236.16" xlink:href="#ma0ba274309" y="156.908915"/>
     <use style="fill-opacity:0;stroke:#000000;" x="236.16" xlink:href="#ma0ba274309" y="131.773586"/>
     <use style="fill-opacity:0;stroke:#000000;" x="236.16" xlink:href="#ma0ba274309" y="93.370684"/>
     <use style="fill-opacity:0;stroke:#000000;" x="236.16" xlink:href="#ma0ba274309" y="93.370684"/>
     <use style="fill-opacity:0;stroke:#000000;" x="236.16" xlink:href="#ma0ba274309" y="93.370684"/>
     <use style="fill-opacity:0;stroke:#000000;" x="236.16" xlink:href="#ma0ba274309" y="93.370684"/>
     <use style="fill-opacity:0;stroke:#000000;" x="236.16" xlink:href="#ma0ba274309" y="152.648688"/>
     <use style="fill-opacity:0;stroke:#000000;" x="236.16" xlink:href="#ma0ba274309" y="93.370684"/>
     <use style="fill-opacity:0;stroke:#000000;" x="236.16" xlink:href="#ma0ba274309" y="53.568"/>
     <use style="fill-opacity:0;stroke:#000000;" x="236.16" xlink:href="#ma0ba274309" y="93.370684"/>
     <use style="fill-opacity:0;stroke:#000000;" x="236.16" xlink:href="#ma0ba274309" y="93.370684"/>
     <use style="fill-opacity:0;stroke:#000000;" x="236.16" xlink:href="#ma0ba274309" y="93.370684"/>
     <use style="fill-opacity:0;stroke:#000000;" x="236.16" xlink:href="#ma0ba274309" y="120.027522"/>
     <use style="fill-opacity:0;stroke:#000000;" x="236.16" xlink:href="#ma0ba274309" y="156.908915"/>
     <use style="fill-opacity:0;stroke:#000000;" x="236.16" xlink:href="#ma0ba274309" y="152.648688"/>
     <use style="fill-opacity:0;stroke:#000000;" x="236.16" xlink:href="#ma0ba274309" y="108.34234"/>
     <use style="fill-opacity:0;stroke:#000000;" x="236.16" xlink:href="#ma0ba274309" y="53.568"/>
     <use style="fill-opacity:0;stroke:#000000;" x="236.16" xlink:href="#ma0ba274309" y="152.648688"/>
     <use style="fill-opacity:0;stroke:#000000;" x="236.16" xlink:href="#ma0ba274309" y="128.669703"/>
     <use style="fill-opacity:0;stroke:#000000;" x="236.16" xlink:href="#ma0ba274309" y="93.370684"/>
     <use style="fill-opacity:0;stroke:#000000;" x="236.16" xlink:href="#ma0ba274309" y="156.908915"/>
     <use style="fill-opacity:0;stroke:#000000;" x="236.16" xlink:href="#ma0ba274309" y="53.568"/>
     <use style="fill-opacity:0;stroke:#000000;" x="236.16" xlink:href="#ma0ba274309" y="139.746299"/>
     <use style="fill-opacity:0;stroke:#000000;" x="236.16" xlink:href="#ma0ba274309" y="156.908915"/>
     <use style="fill-opacity:0;stroke:#000000;" x="236.16" xlink:href="#ma0ba274309" y="131.773586"/>
     <use style="fill-opacity:0;stroke:#000000;" x="236.16" xlink:href="#ma0ba274309" y="93.370684"/>
     <use style="fill-opacity:0;stroke:#000000;" x="236.16" xlink:href="#ma0ba274309" y="93.370684"/>
     <use style="fill-opacity:0;stroke:#000000;" x="236.16" xlink:href="#ma0ba274309" y="93.370684"/>
     <use style="fill-opacity:0;stroke:#000000;" x="236.16" xlink:href="#ma0ba274309" y="152.648688"/>
     <use style="fill-opacity:0;stroke:#000000;" x="236.16" xlink:href="#ma0ba274309" y="93.370684"/>
     <use style="fill-opacity:0;stroke:#000000;" x="236.16" xlink:href="#ma0ba274309" y="53.568"/>
     <use style="fill-opacity:0;stroke:#000000;" x="236.16" xlink:href="#ma0ba274309" y="93.370684"/>
     <use style="fill-opacity:0;stroke:#000000;" x="236.16" xlink:href="#ma0ba274309" y="93.370684"/>
     <use style="fill-opacity:0;stroke:#000000;" x="236.16" xlink:href="#ma0ba274309" y="93.370684"/>
     <use style="fill-opacity:0;stroke:#000000;" x="236.16" xlink:href="#ma0ba274309" y="93.370684"/>
     <use style="fill-opacity:0;stroke:#000000;" x="236.16" xlink:href="#ma0ba274309" y="152.648688"/>
     <use style="fill-opacity:0;stroke:#000000;" x="236.16" xlink:href="#ma0ba274309" y="53.568"/>
     <use style="fill-opacity:0;stroke:#000000;" x="236.16" xlink:href="#ma0ba274309" y="152.648688"/>
     <use style="fill-opacity:0;stroke:#000000;" x="236.16" xlink:href="#ma0ba274309" y="108.34234"/>
     <use style="fill-opacity:0;stroke:#000000;" x="236.16" xlink:href="#ma0ba274309" y="93.370684"/>
     <use style="fill-opacity:0;stroke:#000000;" x="236.16" xlink:href="#ma0ba274309" y="156.908915"/>
     <use style="fill-opacity:0;stroke:#000000;" x="236.16" xlink:href="#ma0ba274309" y="53.568"/>
     <use style="fill-opacity:0;stroke:#000000;" x="236.16" xlink:href="#ma0ba274309" y="139.746299"/>
     <use style="fill-opacity:0;stroke:#000000;" x="236.16" xlink:href="#ma0ba274309" y="131.773586"/>
     <use style="fill-opacity:0;stroke:#000000;" x="236.16" xlink:href="#ma0ba274309" y="156.908915"/>
     <use style="fill-opacity:0;stroke:#000000;" x="236.16" xlink:href="#ma0ba274309" y="120.027522"/>
     <use style="fill-opacity:0;stroke:#000000;" x="236.16" xlink:href="#ma0ba274309" y="93.370684"/>
     <use style="fill-opacity:0;stroke:#000000;" x="236.16" xlink:href="#ma0ba274309" y="93.370684"/>
     <use style="fill-opacity:0;stroke:#000000;" x="236.16" xlink:href="#ma0ba274309" y="93.370684"/>
     <use style="fill-opacity:0;stroke:#000000;" x="236.16" xlink:href="#ma0ba274309" y="131.773586"/>
     <use style="fill-opacity:0;stroke:#000000;" x="236.16" xlink:href="#ma0ba274309" y="152.648688"/>
     <use style="fill-opacity:0;stroke:#000000;" x="236.16" xlink:href="#ma0ba274309" y="93.370684"/>
     <use style="fill-opacity:0;stroke:#000000;" x="236.16" xlink:href="#ma0ba274309" y="53.568"/>
     <use style="fill-opacity:0;stroke:#000000;" x="236.16" xlink:href="#ma0ba274309" y="93.370684"/>
     <use style="fill-opacity:0;stroke:#000000;" x="236.16" xlink:href="#ma0ba274309" y="93.370684"/>
     <use style="fill-opacity:0;stroke:#000000;" x="236.16" xlink:href="#ma0ba274309" y="93.370684"/>
     <use style="fill-opacity:0;stroke:#000000;" x="236.16" xlink:href="#ma0ba274309" y="53.568"/>
     <use style="fill-opacity:0;stroke:#000000;" x="236.16" xlink:href="#ma0ba274309" y="152.648688"/>
     <use style="fill-opacity:0;stroke:#000000;" x="236.16" xlink:href="#ma0ba274309" y="108.34234"/>
     <use style="fill-opacity:0;stroke:#000000;" x="236.16" xlink:href="#ma0ba274309" y="93.370684"/>
     <use style="fill-opacity:0;stroke:#000000;" x="236.16" xlink:href="#ma0ba274309" y="156.908915"/>
     <use style="fill-opacity:0;stroke:#000000;" x="236.16" xlink:href="#ma0ba274309" y="53.568"/>
     <use style="fill-opacity:0;stroke:#000000;" x="236.16" xlink:href="#ma0ba274309" y="139.746299"/>
     <use style="fill-opacity:0;stroke:#000000;" x="236.16" xlink:href="#ma0ba274309" y="120.027522"/>
     <use style="fill-opacity:0;stroke:#000000;" x="236.16" xlink:href="#ma0ba274309" y="156.908915"/>
     <use style="fill-opacity:0;stroke:#000000;" x="236.16" xlink:href="#ma0ba274309" y="156.908915"/>
     <use style="fill-opacity:0;stroke:#000000;" x="236.16" xlink:href="#ma0ba274309" y="131.773586"/>
     <use style="fill-opacity:0;stroke:#000000;" x="236.16" xlink:href="#ma0ba274309" y="93.370684"/>
     <use style="fill-opacity:0;stroke:#000000;" x="236.16" xlink:href="#ma0ba274309" y="93.370684"/>
     <use style="fill-opacity:0;stroke:#000000;" x="236.16" xlink:href="#ma0ba274309" y="93.370684"/>
     <use style="fill-opacity:0;stroke:#000000;" x="236.16" xlink:href="#ma0ba274309" y="93.370684"/>
     <use style="fill-opacity:0;stroke:#000000;" x="236.16" xlink:href="#ma0ba274309" y="131.773586"/>
     <use style="fill-opacity:0;stroke:#000000;" x="236.16" xlink:href="#ma0ba274309" y="152.648688"/>
     <use style="fill-opacity:0;stroke:#000000;" x="236.16" xlink:href="#ma0ba274309" y="93.370684"/>
     <use style="fill-opacity:0;stroke:#000000;" x="236.16" xlink:href="#ma0ba274309" y="53.568"/>
     <use style="fill-opacity:0;stroke:#000000;" x="236.16" xlink:href="#ma0ba274309" y="93.370684"/>
     <use style="fill-opacity:0;stroke:#000000;" x="236.16" xlink:href="#ma0ba274309" y="93.370684"/>
     <use style="fill-opacity:0;stroke:#000000;" x="236.16" xlink:href="#ma0ba274309" y="156.908915"/>
     <use style="fill-opacity:0;stroke:#000000;" x="236.16" xlink:href="#ma0ba274309" y="53.568"/>
     <use style="fill-opacity:0;stroke:#000000;" x="236.16" xlink:href="#ma0ba274309" y="139.746299"/>
     <use style="fill-opacity:0;stroke:#000000;" x="236.16" xlink:href="#ma0ba274309" y="156.908915"/>
     <use style="fill-opacity:0;stroke:#000000;" x="236.16" xlink:href="#ma0ba274309" y="131.773586"/>
     <use style="fill-opacity:0;stroke:#000000;" x="236.16" xlink:href="#ma0ba274309" y="156.908915"/>
     <use style="fill-opacity:0;stroke:#000000;" x="236.16" xlink:href="#ma0ba274309" y="120.027522"/>
     <use style="fill-opacity:0;stroke:#000000;" x="236.16" xlink:href="#ma0ba274309" y="152.648688"/>
     <use style="fill-opacity:0;stroke:#000000;" x="236.16" xlink:href="#ma0ba274309" y="53.568"/>
     <use style="fill-opacity:0;stroke:#000000;" x="236.16" xlink:href="#ma0ba274309" y="152.648688"/>
     <use style="fill-opacity:0;stroke:#000000;" x="236.16" xlink:href="#ma0ba274309" y="108.34234"/>
     <use style="fill-opacity:0;stroke:#000000;" x="236.16" xlink:href="#ma0ba274309" y="93.370684"/>
     <use style="fill-opacity:0;stroke:#000000;" x="236.16" xlink:href="#ma0ba274309" y="93.370684"/>
     <use style="fill-opacity:0;stroke:#000000;" x="236.16" xlink:href="#ma0ba274309" y="93.370684"/>
     <use style="fill-opacity:0;stroke:#000000;" x="236.16" xlink:href="#ma0ba274309" y="93.370684"/>
     <use style="fill-opacity:0;stroke:#000000;" x="236.16" xlink:href="#ma0ba274309" y="131.773586"/>
     <use style="fill-opacity:0;stroke:#000000;" x="236.16" xlink:href="#ma0ba274309" y="152.648688"/>
     <use style="fill-opacity:0;stroke:#000000;" x="236.16" xlink:href="#ma0ba274309" y="93.370684"/>
     <use style="fill-opacity:0;stroke:#000000;" x="236.16" xlink:href="#ma0ba274309" y="53.568"/>
     <use style="fill-opacity:0;stroke:#000000;" x="236.16" xlink:href="#ma0ba274309" y="93.370684"/>
     <use style="fill-opacity:0;stroke:#000000;" x="236.16" xlink:href="#ma0ba274309" y="93.370684"/>
     <use style="fill-opacity:0;stroke:#000000;" x="236.16" xlink:href="#ma0ba274309" y="156.908915"/>
     <use style="fill-opacity:0;stroke:#000000;" x="236.16" xlink:href="#ma0ba274309" y="120.027522"/>
     <use style="fill-opacity:0;stroke:#000000;" x="236.16" xlink:href="#ma0ba274309" y="152.648688"/>
     <use style="fill-opacity:0;stroke:#000000;" x="236.16" xlink:href="#ma0ba274309" y="53.568"/>
     <use style="fill-opacity:0;stroke:#000000;" x="236.16" xlink:href="#ma0ba274309" y="152.648688"/>
     <use style="fill-opacity:0;stroke:#000000;" x="236.16" xlink:href="#ma0ba274309" y="108.34234"/>
     <use style="fill-opacity:0;stroke:#000000;" x="236.16" xlink:href="#ma0ba274309" y="93.370684"/>
     <use style="fill-opacity:0;stroke:#000000;" x="236.16" xlink:href="#ma0ba274309" y="93.370684"/>
     <use style="fill-opacity:0;stroke:#000000;" x="236.16" xlink:href="#ma0ba274309" y="156.908915"/>
     <use style="fill-opacity:0;stroke:#000000;" x="236.16" xlink:href="#ma0ba274309" y="53.568"/>
     <use style="fill-opacity:0;stroke:#000000;" x="236.16" xlink:href="#ma0ba274309" y="139.746299"/>
     <use style="fill-opacity:0;stroke:#000000;" x="236.16" xlink:href="#ma0ba274309" y="156.908915"/>
     <use style="fill-opacity:0;stroke:#000000;" x="236.16" xlink:href="#ma0ba274309" y="131.773586"/>
     <use style="fill-opacity:0;stroke:#000000;" x="236.16" xlink:href="#ma0ba274309" y="93.370684"/>
     <use style="fill-opacity:0;stroke:#000000;" x="236.16" xlink:href="#ma0ba274309" y="93.370684"/>
     <use style="fill-opacity:0;stroke:#000000;" x="236.16" xlink:href="#ma0ba274309" y="93.370684"/>
     <use style="fill-opacity:0;stroke:#000000;" x="236.16" xlink:href="#ma0ba274309" y="131.773586"/>
     <use style="fill-opacity:0;stroke:#000000;" x="236.16" xlink:href="#ma0ba274309" y="152.648688"/>
     <use style="fill-opacity:0;stroke:#000000;" x="236.16" xlink:href="#ma0ba274309" y="93.370684"/>
     <use style="fill-opacity:0;stroke:#000000;" x="236.16" xlink:href="#ma0ba274309" y="53.568"/>
     <use style="fill-opacity:0;stroke:#000000;" x="236.16" xlink:href="#ma0ba274309" y="93.370684"/>
     <use style="fill-opacity:0;stroke:#000000;" x="236.16" xlink:href="#ma0ba274309" y="93.370684"/>
     <use style="fill-opacity:0;stroke:#000000;" x="236.16" xlink:href="#ma0ba274309" y="93.370684"/>
     <use style="fill-opacity:0;stroke:#000000;" x="236.16" xlink:href="#ma0ba274309" y="152.648688"/>
     <use style="fill-opacity:0;stroke:#000000;" x="236.16" xlink:href="#ma0ba274309" y="53.568"/>
     <use style="fill-opacity:0;stroke:#000000;" x="236.16" xlink:href="#ma0ba274309" y="152.648688"/>
     <use style="fill-opacity:0;stroke:#000000;" x="236.16" xlink:href="#ma0ba274309" y="108.34234"/>
     <use style="fill-opacity:0;stroke:#000000;" x="236.16" xlink:href="#ma0ba274309" y="93.370684"/>
     <use style="fill-opacity:0;stroke:#000000;" x="236.16" xlink:href="#ma0ba274309" y="93.370684"/>
     <use style="fill-opacity:0;stroke:#000000;" x="236.16" xlink:href="#ma0ba274309" y="120.027522"/>
     <use style="fill-opacity:0;stroke:#000000;" x="236.16" xlink:href="#ma0ba274309" y="156.908915"/>
     <use style="fill-opacity:0;stroke:#000000;" x="236.16" xlink:href="#ma0ba274309" y="53.568"/>
     <use style="fill-opacity:0;stroke:#000000;" x="236.16" xlink:href="#ma0ba274309" y="139.746299"/>
     <use style="fill-opacity:0;stroke:#000000;" x="236.16" xlink:href="#ma0ba274309" y="156.908915"/>
     <use style="fill-opacity:0;stroke:#000000;" x="236.16" xlink:href="#ma0ba274309" y="131.773586"/>
     <use style="fill-opacity:0;stroke:#000000;" x="236.16" xlink:href="#ma0ba274309" y="93.370684"/>
     <use style="fill-opacity:0;stroke:#000000;" x="236.16" xlink:href="#ma0ba274309" y="93.370684"/>
     <use style="fill-opacity:0;stroke:#000000;" x="236.16" xlink:href="#ma0ba274309" y="93.370684"/>
     <use style="fill-opacity:0;stroke:#000000;" x="236.16" xlink:href="#ma0ba274309" y="53.568"/>
     <use style="fill-opacity:0;stroke:#000000;" x="236.16" xlink:href="#ma0ba274309" y="152.648688"/>
     <use style="fill-opacity:0;stroke:#000000;" x="236.16" xlink:href="#ma0ba274309" y="93.370684"/>
     <use style="fill-opacity:0;stroke:#000000;" x="236.16" xlink:href="#ma0ba274309" y="93.370684"/>
     <use style="fill-opacity:0;stroke:#000000;" x="236.16" xlink:href="#ma0ba274309" y="93.370684"/>
     <use style="fill-opacity:0;stroke:#000000;" x="236.16" xlink:href="#ma0ba274309" y="131.773586"/>
     <use style="fill-opacity:0;stroke:#000000;" x="236.16" xlink:href="#ma0ba274309" y="93.370684"/>
     <use style="fill-opacity:0;stroke:#000000;" x="236.16" xlink:href="#ma0ba274309" y="156.908915"/>
     <use style="fill-opacity:0;stroke:#000000;" x="236.16" xlink:href="#ma0ba274309" y="156.908915"/>
     <use style="fill-opacity:0;stroke:#000000;" x="236.16" xlink:href="#ma0ba274309" y="156.908915"/>
     <use style="fill-opacity:0;stroke:#000000;" x="236.16" xlink:href="#ma0ba274309" y="53.568"/>
     <use style="fill-opacity:0;stroke:#000000;" x="236.16" xlink:href="#ma0ba274309" y="139.746299"/>
     <use style="fill-opacity:0;stroke:#000000;" x="236.16" xlink:href="#ma0ba274309" y="131.773586"/>
     <use style="fill-opacity:0;stroke:#000000;" x="236.16" xlink:href="#ma0ba274309" y="131.773586"/>
     <use style="fill-opacity:0;stroke:#000000;" x="236.16" xlink:href="#ma0ba274309" y="93.370684"/>
     <use style="fill-opacity:0;stroke:#000000;" x="236.16" xlink:href="#ma0ba274309" y="93.370684"/>
     <use style="fill-opacity:0;stroke:#000000;" x="236.16" xlink:href="#ma0ba274309" y="93.370684"/>
     <use style="fill-opacity:0;stroke:#000000;" x="236.16" xlink:href="#ma0ba274309" y="152.648688"/>
     <use style="fill-opacity:0;stroke:#000000;" x="236.16" xlink:href="#ma0ba274309" y="93.370684"/>
     <use style="fill-opacity:0;stroke:#000000;" x="236.16" xlink:href="#ma0ba274309" y="53.568"/>
     <use style="fill-opacity:0;stroke:#000000;" x="236.16" xlink:href="#ma0ba274309" y="93.370684"/>
     <use style="fill-opacity:0;stroke:#000000;" x="236.16" xlink:href="#ma0ba274309" y="93.370684"/>
     <use style="fill-opacity:0;stroke:#000000;" x="236.16" xlink:href="#ma0ba274309" y="93.370684"/>
     <use style="fill-opacity:0;stroke:#000000;" x="236.16" xlink:href="#ma0ba274309" y="120.027522"/>
     <use style="fill-opacity:0;stroke:#000000;" x="236.16" xlink:href="#ma0ba274309" y="120.027522"/>
     <use style="fill-opacity:0;stroke:#000000;" x="236.16" xlink:href="#ma0ba274309" y="152.648688"/>
     <use style="fill-opacity:0;stroke:#000000;" x="236.16" xlink:href="#ma0ba274309" y="108.34234"/>
     <use style="fill-opacity:0;stroke:#000000;" x="236.16" xlink:href="#ma0ba274309" y="152.648688"/>
     <use style="fill-opacity:0;stroke:#000000;" x="236.16" xlink:href="#ma0ba274309" y="53.568"/>
     <use style="fill-opacity:0;stroke:#000000;" x="236.16" xlink:href="#ma0ba274309" y="93.370684"/>
     <use style="fill-opacity:0;stroke:#000000;" x="236.16" xlink:href="#ma0ba274309" y="156.908915"/>
     <use style="fill-opacity:0;stroke:#000000;" x="236.16" xlink:href="#ma0ba274309" y="139.746299"/>
     <use style="fill-opacity:0;stroke:#000000;" x="236.16" xlink:href="#ma0ba274309" y="53.568"/>
     <use style="fill-opacity:0;stroke:#000000;" x="236.16" xlink:href="#ma0ba274309" y="156.908915"/>
     <use style="fill-opacity:0;stroke:#000000;" x="236.16" xlink:href="#ma0ba274309" y="131.773586"/>
     <use style="fill-opacity:0;stroke:#000000;" x="236.16" xlink:href="#ma0ba274309" y="93.370684"/>
     <use style="fill-opacity:0;stroke:#000000;" x="236.16" xlink:href="#ma0ba274309" y="93.370684"/>
     <use style="fill-opacity:0;stroke:#000000;" x="236.16" xlink:href="#ma0ba274309" y="131.773586"/>
     <use style="fill-opacity:0;stroke:#000000;" x="236.16" xlink:href="#ma0ba274309" y="93.370684"/>
     <use style="fill-opacity:0;stroke:#000000;" x="236.16" xlink:href="#ma0ba274309" y="93.370684"/>
     <use style="fill-opacity:0;stroke:#000000;" x="236.16" xlink:href="#ma0ba274309" y="93.370684"/>
     <use style="fill-opacity:0;stroke:#000000;" x="236.16" xlink:href="#ma0ba274309" y="152.648688"/>
     <use style="fill-opacity:0;stroke:#000000;" x="236.16" xlink:href="#ma0ba274309" y="53.568"/>
     <use style="fill-opacity:0;stroke:#000000;" x="236.16" xlink:href="#ma0ba274309" y="93.370684"/>
     <use style="fill-opacity:0;stroke:#000000;" x="236.16" xlink:href="#ma0ba274309" y="93.370684"/>
     <use style="fill-opacity:0;stroke:#000000;" x="236.16" xlink:href="#ma0ba274309" y="152.648688"/>
     <use style="fill-opacity:0;stroke:#000000;" x="236.16" xlink:href="#ma0ba274309" y="152.648688"/>
     <use style="fill-opacity:0;stroke:#000000;" x="236.16" xlink:href="#ma0ba274309" y="53.568"/>
     <use style="fill-opacity:0;stroke:#000000;" x="236.16" xlink:href="#ma0ba274309" y="93.370684"/>
     <use style="fill-opacity:0;stroke:#000000;" x="236.16" xlink:href="#ma0ba274309" y="108.34234"/>
     <use style="fill-opacity:0;stroke:#000000;" x="236.16" xlink:href="#ma0ba274309" y="156.908915"/>
     <use style="fill-opacity:0;stroke:#000000;" x="236.16" xlink:href="#ma0ba274309" y="139.746299"/>
     <use style="fill-opacity:0;stroke:#000000;" x="236.16" xlink:href="#ma0ba274309" y="53.568"/>
     <use style="fill-opacity:0;stroke:#000000;" x="236.16" xlink:href="#ma0ba274309" y="156.908915"/>
     <use style="fill-opacity:0;stroke:#000000;" x="236.16" xlink:href="#ma0ba274309" y="131.773586"/>
     <use style="fill-opacity:0;stroke:#000000;" x="236.16" xlink:href="#ma0ba274309" y="93.370684"/>
     <use style="fill-opacity:0;stroke:#000000;" x="236.16" xlink:href="#ma0ba274309" y="93.370684"/>
     <use style="fill-opacity:0;stroke:#000000;" x="236.16" xlink:href="#ma0ba274309" y="131.773586"/>
     <use style="fill-opacity:0;stroke:#000000;" x="236.16" xlink:href="#ma0ba274309" y="93.370684"/>
     <use style="fill-opacity:0;stroke:#000000;" x="236.16" xlink:href="#ma0ba274309" y="93.370684"/>
     <use style="fill-opacity:0;stroke:#000000;" x="236.16" xlink:href="#ma0ba274309" y="152.648688"/>
     <use style="fill-opacity:0;stroke:#000000;" x="236.16" xlink:href="#ma0ba274309" y="53.568"/>
     <use style="fill-opacity:0;stroke:#000000;" x="236.16" xlink:href="#ma0ba274309" y="93.370684"/>
     <use style="fill-opacity:0;stroke:#000000;" x="236.16" xlink:href="#ma0ba274309" y="93.370684"/>
     <use style="fill-opacity:0;stroke:#000000;" x="236.16" xlink:href="#ma0ba274309" y="93.370684"/>
     <use style="fill-opacity:0;stroke:#000000;" x="236.16" xlink:href="#ma0ba274309" y="108.34234"/>
     <use style="fill-opacity:0;stroke:#000000;" x="236.16" xlink:href="#ma0ba274309" y="152.648688"/>
     <use style="fill-opacity:0;stroke:#000000;" x="236.16" xlink:href="#ma0ba274309" y="108.34234"/>
     <use style="fill-opacity:0;stroke:#000000;" x="236.16" xlink:href="#ma0ba274309" y="152.648688"/>
     <use style="fill-opacity:0;stroke:#000000;" x="236.16" xlink:href="#ma0ba274309" y="53.568"/>
     <use style="fill-opacity:0;stroke:#000000;" x="236.16" xlink:href="#ma0ba274309" y="93.370684"/>
     <use style="fill-opacity:0;stroke:#000000;" x="236.16" xlink:href="#ma0ba274309" y="156.908915"/>
     <use style="fill-opacity:0;stroke:#000000;" x="236.16" xlink:href="#ma0ba274309" y="139.746299"/>
     <use style="fill-opacity:0;stroke:#000000;" x="236.16" xlink:href="#ma0ba274309" y="53.568"/>
     <use style="fill-opacity:0;stroke:#000000;" x="236.16" xlink:href="#ma0ba274309" y="156.908915"/>
     <use style="fill-opacity:0;stroke:#000000;" x="236.16" xlink:href="#ma0ba274309" y="131.773586"/>
     <use style="fill-opacity:0;stroke:#000000;" x="236.16" xlink:href="#ma0ba274309" y="93.370684"/>
     <use style="fill-opacity:0;stroke:#000000;" x="236.16" xlink:href="#ma0ba274309" y="93.370684"/>
     <use style="fill-opacity:0;stroke:#000000;" x="236.16" xlink:href="#ma0ba274309" y="93.370684"/>
     <use style="fill-opacity:0;stroke:#000000;" x="236.16" xlink:href="#ma0ba274309" y="152.648688"/>
     <use style="fill-opacity:0;stroke:#000000;" x="236.16" xlink:href="#ma0ba274309" y="131.773586"/>
     <use style="fill-opacity:0;stroke:#000000;" x="236.16" xlink:href="#ma0ba274309" y="93.370684"/>
     <use style="fill-opacity:0;stroke:#000000;" x="236.16" xlink:href="#ma0ba274309" y="93.370684"/>
     <use style="fill-opacity:0;stroke:#000000;" x="236.16" xlink:href="#ma0ba274309" y="53.568"/>
     <use style="fill-opacity:0;stroke:#000000;" x="236.16" xlink:href="#ma0ba274309" y="93.370684"/>
     <use style="fill-opacity:0;stroke:#000000;" x="236.16" xlink:href="#ma0ba274309" y="93.370684"/>
     <use style="fill-opacity:0;stroke:#000000;" x="236.16" xlink:href="#ma0ba274309" y="108.34234"/>
     <use style="fill-opacity:0;stroke:#000000;" x="236.16" xlink:href="#ma0ba274309" y="108.34234"/>
     <use style="fill-opacity:0;stroke:#000000;" x="236.16" xlink:href="#ma0ba274309" y="152.648688"/>
     <use style="fill-opacity:0;stroke:#000000;" x="236.16" xlink:href="#ma0ba274309" y="53.568"/>
     <use style="fill-opacity:0;stroke:#000000;" x="236.16" xlink:href="#ma0ba274309" y="93.370684"/>
     <use style="fill-opacity:0;stroke:#000000;" x="236.16" xlink:href="#ma0ba274309" y="93.370684"/>
     <use style="fill-opacity:0;stroke:#000000;" x="236.16" xlink:href="#ma0ba274309" y="156.908915"/>
     <use style="fill-opacity:0;stroke:#000000;" x="236.16" xlink:href="#ma0ba274309" y="139.746299"/>
     <use style="fill-opacity:0;stroke:#000000;" x="236.16" xlink:href="#ma0ba274309" y="53.568"/>
     <use style="fill-opacity:0;stroke:#000000;" x="236.16" xlink:href="#ma0ba274309" y="156.908915"/>
     <use style="fill-opacity:0;stroke:#000000;" x="236.16" xlink:href="#ma0ba274309" y="93.370684"/>
     <use style="fill-opacity:0;stroke:#000000;" x="236.16" xlink:href="#ma0ba274309" y="131.773586"/>
     <use style="fill-opacity:0;stroke:#000000;" x="236.16" xlink:href="#ma0ba274309" y="93.370684"/>
     <use style="fill-opacity:0;stroke:#000000;" x="236.16" xlink:href="#ma0ba274309" y="53.568"/>
     <use style="fill-opacity:0;stroke:#000000;" x="236.16" xlink:href="#ma0ba274309" y="93.370684"/>
     <use style="fill-opacity:0;stroke:#000000;" x="236.16" xlink:href="#ma0ba274309" y="93.370684"/>
     <use style="fill-opacity:0;stroke:#000000;" x="236.16" xlink:href="#ma0ba274309" y="131.773586"/>
     <use style="fill-opacity:0;stroke:#000000;" x="236.16" xlink:href="#ma0ba274309" y="131.773586"/>
     <use style="fill-opacity:0;stroke:#000000;" x="236.16" xlink:href="#ma0ba274309" y="93.370684"/>
     <use style="fill-opacity:0;stroke:#000000;" x="236.16" xlink:href="#ma0ba274309" y="93.370684"/>
     <use style="fill-opacity:0;stroke:#000000;" x="236.16" xlink:href="#ma0ba274309" y="93.370684"/>
     <use style="fill-opacity:0;stroke:#000000;" x="236.16" xlink:href="#ma0ba274309" y="93.370684"/>
     <use style="fill-opacity:0;stroke:#000000;" x="236.16" xlink:href="#ma0ba274309" y="53.568"/>
     <use style="fill-opacity:0;stroke:#000000;" x="236.16" xlink:href="#ma0ba274309" y="152.648688"/>
     <use style="fill-opacity:0;stroke:#000000;" x="236.16" xlink:href="#ma0ba274309" y="108.34234"/>
     <use style="fill-opacity:0;stroke:#000000;" x="236.16" xlink:href="#ma0ba274309" y="93.370684"/>
     <use style="fill-opacity:0;stroke:#000000;" x="236.16" xlink:href="#ma0ba274309" y="93.370684"/>
     <use style="fill-opacity:0;stroke:#000000;" x="236.16" xlink:href="#ma0ba274309" y="156.908915"/>
     <use style="fill-opacity:0;stroke:#000000;" x="236.16" xlink:href="#ma0ba274309" y="53.568"/>
     <use style="fill-opacity:0;stroke:#000000;" x="236.16" xlink:href="#ma0ba274309" y="93.370684"/>
     <use style="fill-opacity:0;stroke:#000000;" x="236.16" xlink:href="#ma0ba274309" y="156.908915"/>
     <use style="fill-opacity:0;stroke:#000000;" x="236.16" xlink:href="#ma0ba274309" y="93.370684"/>
     <use style="fill-opacity:0;stroke:#000000;" x="236.16" xlink:href="#ma0ba274309" y="93.370684"/>
     <use style="fill-opacity:0;stroke:#000000;" x="236.16" xlink:href="#ma0ba274309" y="131.773586"/>
     <use style="fill-opacity:0;stroke:#000000;" x="236.16" xlink:href="#ma0ba274309" y="139.746299"/>
     <use style="fill-opacity:0;stroke:#000000;" x="236.16" xlink:href="#ma0ba274309" y="93.370684"/>
     <use style="fill-opacity:0;stroke:#000000;" x="236.16" xlink:href="#ma0ba274309" y="93.370684"/>
     <use style="fill-opacity:0;stroke:#000000;" x="236.16" xlink:href="#ma0ba274309" y="93.370684"/>
     <use style="fill-opacity:0;stroke:#000000;" x="236.16" xlink:href="#ma0ba274309" y="131.773586"/>
     <use style="fill-opacity:0;stroke:#000000;" x="236.16" xlink:href="#ma0ba274309" y="131.773586"/>
     <use style="fill-opacity:0;stroke:#000000;" x="236.16" xlink:href="#ma0ba274309" y="93.370684"/>
     <use style="fill-opacity:0;stroke:#000000;" x="236.16" xlink:href="#ma0ba274309" y="53.568"/>
     <use style="fill-opacity:0;stroke:#000000;" x="236.16" xlink:href="#ma0ba274309" y="93.370684"/>
     <use style="fill-opacity:0;stroke:#000000;" x="236.16" xlink:href="#ma0ba274309" y="93.370684"/>
     <use style="fill-opacity:0;stroke:#000000;" x="236.16" xlink:href="#ma0ba274309" y="93.370684"/>
     <use style="fill-opacity:0;stroke:#000000;" x="236.16" xlink:href="#ma0ba274309" y="108.34234"/>
     <use style="fill-opacity:0;stroke:#000000;" x="236.16" xlink:href="#ma0ba274309" y="53.568"/>
     <use style="fill-opacity:0;stroke:#000000;" x="236.16" xlink:href="#ma0ba274309" y="152.648688"/>
     <use style="fill-opacity:0;stroke:#000000;" x="236.16" xlink:href="#ma0ba274309" y="93.370684"/>
     <use style="fill-opacity:0;stroke:#000000;" x="236.16" xlink:href="#ma0ba274309" y="108.34234"/>
     <use style="fill-opacity:0;stroke:#000000;" x="236.16" xlink:href="#ma0ba274309" y="156.908915"/>
     <use style="fill-opacity:0;stroke:#000000;" x="236.16" xlink:href="#ma0ba274309" y="53.568"/>
     <use style="fill-opacity:0;stroke:#000000;" x="236.16" xlink:href="#ma0ba274309" y="93.370684"/>
     <use style="fill-opacity:0;stroke:#000000;" x="236.16" xlink:href="#ma0ba274309" y="156.908915"/>
     <use style="fill-opacity:0;stroke:#000000;" x="236.16" xlink:href="#ma0ba274309" y="93.370684"/>
     <use style="fill-opacity:0;stroke:#000000;" x="236.16" xlink:href="#ma0ba274309" y="156.908915"/>
     <use style="fill-opacity:0;stroke:#000000;" x="236.16" xlink:href="#ma0ba274309" y="93.370684"/>
     <use style="fill-opacity:0;stroke:#000000;" x="236.16" xlink:href="#ma0ba274309" y="131.773586"/>
     <use style="fill-opacity:0;stroke:#000000;" x="236.16" xlink:href="#ma0ba274309" y="139.746299"/>
    </g>
   </g>
   <g id="line2d_25">
    <path clip-path="url(#p11164552c2)" d="M 209.376 238.583545 
L 262.944 238.583545 
" style="fill:none;stroke:#2ca02c;stroke-linecap:square;"/>
   </g>
   <g id="patch_3">
    <path d="M 57.6 307.584 
L 57.6 41.472 
" style="fill:none;stroke:#000000;stroke-linecap:square;stroke-linejoin:miter;stroke-width:0.8;"/>
   </g>
   <g id="patch_4">
    <path d="M 414.72 307.584 
L 414.72 41.472 
" style="fill:none;stroke:#000000;stroke-linecap:square;stroke-linejoin:miter;stroke-width:0.8;"/>
   </g>
   <g id="patch_5">
    <path d="M 57.6 307.584 
L 414.72 307.584 
" style="fill:none;stroke:#000000;stroke-linecap:square;stroke-linejoin:miter;stroke-width:0.8;"/>
   </g>
   <g id="patch_6">
    <path d="M 57.6 41.472 
L 414.72 41.472 
" style="fill:none;stroke:#000000;stroke-linecap:square;stroke-linejoin:miter;stroke-width:0.8;"/>
   </g>
  </g>
 </g>
 <defs>
  <clipPath id="p11164552c2">
   <rect height="266.112" width="357.12" x="57.6" y="41.472"/>
  </clipPath>
 </defs>
</svg>
